<svg height="44" viewBox="35 35 152 44" xmlns="http://www.w3.org/2000/svg" data-di-res-id="36018445-2827a80b" data-di-rand="1723465544333" style="margin-top: 15px;"><style>.newark-logo_svg__st0{fill:#41c363}.newark-logo_svg__st1{fill:#fff}</style><style class="darkreader darkreader--sync" media="screen"/><path d="m102.97 45.06 8.32 12.86V45.06h2.57V62.5h-2.39l-8.49-12.73V62.5h-2.57V45.06h2.56zM118.82 56.66c.07.69.21 1.29.43 1.79s.49.92.82 1.25c.33.33.7.57 1.11.73.41.16.84.24 1.27.24.66 0 1.23-.15 1.73-.45.5-.3.89-.67 1.2-1.11l1.59 1.39c-.19.25-.42.52-.69.79-.28.28-.6.53-.98.76-.38.23-.81.42-1.3.57-.49.15-1.03.23-1.64.23-.79 0-1.54-.15-2.24-.44-.71-.29-1.32-.73-1.84-1.32-.52-.59-.93-1.32-1.24-2.21s-.45-1.91-.45-3.09c0-1.11.14-2.1.42-2.96.28-.87.66-1.59 1.16-2.18a4.96 4.96 0 0 1 1.78-1.34c.69-.3 1.44-.45 2.27-.45.82 0 1.58.15 2.27.45.69.3 1.29.75 1.79 1.34.5.59.89 1.32 1.17 2.18.28.87.42 1.85.42 2.96 0 .17 0 .32-.01.47-.01.14-.02.28-.04.42h-9zm3.4-5.65c-.92 0-1.69.33-2.29 1-.61.66-.97 1.62-1.11 2.86h6.78c-.13-1.28-.5-2.24-1.11-2.89-.6-.65-1.36-.97-2.27-.97zM130.72 49.17l2.29 9.38 2.85-9.38h1.92l2.8 9.38 2.34-9.38h2.24l-3.35 13.33h-2.09l-2.92-9.65-2.97 9.65h-2.09l-3.28-13.33h2.26zM147.23 50.25c.49-.37 1.13-.7 1.92-.98.79-.29 1.74-.43 2.85-.43.76 0 1.45.09 2.08.26.63.18 1.18.47 1.64.87.46.4.82.94 1.07 1.6.25.66.38 1.48.38 2.46v8.47h-2.22v-.96c-1.14.76-2.45 1.13-3.93 1.13-.67 0-1.3-.08-1.88-.25a4.25 4.25 0 0 1-1.51-.78c-.43-.35-.77-.8-1.02-1.34s-.38-1.18-.38-1.92c0-.72.13-1.37.38-1.93.25-.56.6-1.03 1.06-1.4.45-.37.99-.65 1.61-.84.62-.19 1.3-.29 2.04-.29.59 0 1.18.06 1.79.18.6.12 1.18.29 1.71.53v-.45c0-.59-.07-1.08-.21-1.47a2.28 2.28 0 0 0-.62-.95c-.27-.24-.6-.4-.98-.5-.39-.1-.82-.15-1.29-.15-.71 0-1.35.09-1.93.28-.58.19-1.11.45-1.6.78l-.96-1.92zm4.31 10.44c.54 0 1.1-.07 1.68-.2.58-.13 1.11-.33 1.6-.58V56.2c-.45-.17-.94-.29-1.45-.38-.51-.08-1-.13-1.47-.13-.96 0-1.76.21-2.42.62-.66.41-.98 1.06-.98 1.95 0 .44.08.81.24 1.11.16.3.38.55.66.74.28.19.6.34.97.43.35.1.75.15 1.17.15zM167.95 51.77c-.24-.24-.51-.4-.83-.5-.32-.1-.68-.15-1.08-.15-.69 0-1.31.16-1.85.49-.55.33-1.01.96-1.4 1.9v9h-2.39V49.17h2.27v1.61c.96-1.29 2.23-1.94 3.83-1.94.59 0 1.07.08 1.44.24.37.16.67.35.91.57l-.9 2.12zM181.46 49.17l-4.61 5.24 5.34 8.09h-2.6l-4.23-6.38-2.27 2.57v3.81h-2.39V45.58l2.39-1.19v11.39l5.77-6.6h2.6zM66.94 71.92c-10.5-3.07-20.35-11.36-19.87-18.22.44-6.25 7.65-9.26 16.33-8.75-10.81-1.82-18.54 2.5-18.71 9.48-.2 7.9 10.77 17.79 22.26 21.43l-.01-3.94z"/><path class="newark-logo_svg__st0" d="M67.04 65.81s-6.83-3.52-9.48-5.62c1.75.97 9.48 4.14 9.48 4.14v-1.29s-6.31-3.14-9.81-5.79c4.56 2.29 9.81 4.27 9.81 4.27l-.01-1.39s-5.24-2.17-9.96-5.53c5.59 2.75 9.96 3.85 9.96 3.85v-1.31c-10.51-3.07-16.92-9.52-17.61-14.16-.91-6.12 5.39-7.35 14.06-6.85-10.81-1.82-18.9-.27-18.9 9.04 0 7.9 10.96 17.92 22.45 21.55v-.91z"/><path d="M67.07 41.46c10.51 3.07 20.36 11.36 19.87 18.22-.44 6.25-7.65 9.26-16.33 8.75 10.81 1.81 18.54-2.5 18.72-9.48.2-7.9-10.77-17.79-22.26-21.42v3.93z"/><path class="newark-logo_svg__st0" d="M66.98 47.58s6.83 3.52 9.48 5.62c-1.75-.97-9.48-4.14-9.48-4.14v1.29s6.31 3.14 9.8 5.79c-4.56-2.29-9.8-4.27-9.8-4.27v1.39s5.24 2.16 9.96 5.53c-5.59-2.75-9.96-3.85-9.96-3.85v1.31c10.51 3.07 16.92 9.52 17.61 14.15.91 6.12-5.39 7.35-14.06 6.85 10.81 1.81 18.9.28 18.9-9.04 0-7.9-10.96-17.92-22.45-21.55v.92zM100.39 69.14v8.78h78.91l2.89-8.78z"/><path class="newark-logo_svg__st1" d="M111.31 74.79h-1.52l-.35 1.13h-.96l1.62-4.79h.9l1.62 4.79h-.96l-.35-1.13zm-1.26-.82h1.01l-.51-1.66-.5 1.66zM116.8 71.14v4.79h-.94l-1.76-3.16v3.16h-.89v-4.79h.94l1.76 3.16v-3.16h.89zM121.97 74.79h-1.52l-.35 1.13h-.96l1.62-4.79h.89l1.62 4.79h-.96l-.34-1.13zm-1.26-.82h1.01l-.51-1.66-.5 1.66zM124.59 75.92l-1.61-4.79h.98l1.07 3.54 1.07-3.54h.98l-1.61 4.79h-.88zM131.2 71.14v4.79h-.94l-1.76-3.16v3.16h-.89v-4.79h.94l1.76 3.16v-3.16h.89zM135.15 71.14v.82h-2.07v1h1.66v.82h-1.66v1.32h2.14v.82h-3.03v-4.79h2.96zM135.88 71.14h3.54v.82h-1.33v3.96h-.89v-3.96h-1.33v-.82zM144.95 72.74c-.18-.49-.52-.83-1.18-.83-.74 0-1.36.52-1.36 1.63s.62 1.63 1.36 1.63c.66 0 1-.35 1.18-.83l.8.21c-.23.92-.94 1.45-1.98 1.45-1.2 0-2.26-.85-2.26-2.45s1.07-2.45 2.26-2.45c1.04 0 1.76.53 1.98 1.45l-.8.19zM150.9 73.53c0 1.66-1.05 2.45-2.26 2.45s-2.26-.79-2.26-2.45 1.05-2.45 2.26-2.45 2.26.79 2.26 2.45zm-3.61 0c0 1.13.64 1.63 1.35 1.63s1.35-.49 1.35-1.63-.64-1.63-1.35-1.63-1.35.5-1.35 1.63zM151.85 71.14h1l1.13 2.99 1.13-2.99h1v4.79h-.89v-2.95l-.92 2.52h-.64l-.92-2.52v2.95h-.89v-4.79zM157.97 74.05v1.87h-.89v-4.79h1.8c1.01 0 1.5.62 1.5 1.46s-.49 1.46-1.5 1.46h-.91zm1.51-1.46c0-.44-.24-.64-.63-.64h-.88v1.27h.88c.39.01.63-.19.63-.63zM163.07 74.79h-1.52l-.35 1.13h-.96l1.62-4.79h.89l1.62 4.79h-.96l-.34-1.13zm-1.27-.82h1.01l-.51-1.66-.5 1.66zM168.55 71.14v4.79h-.94l-1.76-3.16v3.16h-.89v-4.79h.94l1.76 3.16v-3.16h.89zM169.9 71.14l.87 1.86.87-1.86h.96l-1.38 2.75v2.04h-.89v-2.04l-1.38-2.75h.95z"/></svg>