<svg width="252" height="52" viewBox="0 0 252 52" fill="none" xmlns="http://www.w3.org/2000/svg">
<g clip-path="url(#clip0_4_8)">
<path d="M207.506 26.2662C212.397 22.3527 211.823 18.0742 208.912 15.8516C205.986 13.6157 198.929 13.3813 196.153 19.8774C195.744 20.8351 196.54 21.4346 197.566 20.0442C199.106 17.9586 202.112 16.418 204.703 17.6878C207.294 18.9576 208.449 22.3725 207.003 24.5505C204.573 28.2131 200.55 28.0661 200.55 29.1345C200.55 29.9056 203.689 28.6325 207.188 31.5074C209.789 33.6441 210.402 37.6253 208.203 40.1452C206.004 42.6651 202.581 42.6948 199.477 40.9263C195.918 38.9001 194.622 41.9335 196.01 43.2678C197.398 44.602 200.266 44.7159 202.036 44.7159C207.989 44.7159 213.004 40.1221 213.004 34.3971C213.004 30.7511 210.613 27.8679 207.427 26.6328C207.298 26.5832 207.114 26.5816 207.504 26.2678L207.506 26.2662Z" fill="#0032B4"/>
<path d="M226.689 7.92049L226.52 3.63872C226.52 3.60074 226.486 3.59248 226.448 3.62055L222.642 6.38975C222.609 6.41452 222.583 6.46406 222.584 6.49873L222.778 10.4618C222.779 10.4965 222.808 10.508 222.842 10.4849L226.625 8.03442C226.663 8.00965 226.694 7.95846 226.692 7.92049H226.689Z" fill="#4E8BFB"/>
<path d="M227.473 29.5786L223.813 30.5578C223.78 30.5661 223.756 30.5991 223.757 30.6305L223.929 34.1692C223.929 34.2005 223.959 34.2204 223.99 34.2138L227.627 33.4888C227.664 33.4822 227.693 33.4476 227.692 33.4145L227.543 29.6232C227.543 29.5885 227.51 29.5704 227.473 29.5803V29.5786Z" fill="#4E8BFB"/>
<path d="M219.358 14.1524C219.371 14.1755 219.402 14.1706 219.429 14.1408L222.377 10.8845C222.407 10.8515 222.42 10.8052 222.405 10.7821L220.835 8.15164C220.822 8.12852 220.787 8.13843 220.759 8.17145L217.958 11.5302C217.933 11.5599 217.923 11.6028 217.935 11.6243L219.358 14.1524Z" fill="#4E8BFB"/>
<path d="M231.977 26.8094C231.959 26.7797 231.912 26.7781 231.873 26.8028L227.994 29.3425C227.96 29.3656 227.945 29.4052 227.96 29.4333L229.755 32.6236C229.771 32.6517 229.814 32.6583 229.851 32.6385L233.948 30.2837C233.989 30.259 234.009 30.2144 233.991 30.1847L231.975 26.8111L231.977 26.8094Z" fill="#4E8BFB"/>
<path d="M217.114 18.1749C217.134 18.1865 217.164 18.1683 217.182 18.137L219.098 14.6098C219.118 14.5752 219.114 14.5372 219.093 14.5273L216.745 13.4374C216.725 13.4275 216.694 13.449 216.677 13.482L214.942 16.9249C214.927 16.9563 214.928 16.9893 214.947 16.9992L217.112 18.1733L217.114 18.1749Z" fill="#4E8BFB"/>
<path d="M240.098 24.2747L235.898 22.3262C235.864 22.3097 235.806 22.3295 235.773 22.3691L232.384 26.3553C232.354 26.3917 232.354 26.4346 232.387 26.4511L236.141 28.4855C236.176 28.5036 236.232 28.4904 236.267 28.4541L240.101 24.3837C240.139 24.3424 240.139 24.2945 240.101 24.2764L240.098 24.2747Z" fill="#4E8BFB"/>
<path d="M213.55 22.1148L216.092 22.0834C216.115 22.0834 216.141 22.057 216.15 22.0256L216.995 18.6141C217.003 18.5811 216.99 18.5547 216.965 18.558L214.306 18.771C214.283 18.7726 214.26 18.8007 214.253 18.8321L213.524 22.062C213.517 22.0917 213.529 22.1165 213.55 22.1165V22.1148Z" fill="#4E8BFB"/>
<path d="M244.35 16.3552L238.294 16.8423C238.244 16.8456 238.188 16.8885 238.168 16.9364L236.156 21.7548C236.138 21.7994 236.161 21.8341 236.208 21.8341L241.831 21.7648C241.886 21.7648 241.947 21.7251 241.97 21.6772L244.414 16.4427C244.439 16.3915 244.411 16.3519 244.353 16.3568L244.35 16.3552Z" fill="#4E8BFB"/>
<path d="M216.305 25.4835L216.107 22.4666C216.105 22.4385 216.083 22.4237 216.059 22.4369L213.418 23.7199C213.396 23.7315 213.38 23.7612 213.381 23.7893L213.587 26.6229C213.588 26.6493 213.608 26.6642 213.63 26.6543L216.264 25.5545C216.289 25.5446 216.307 25.5132 216.305 25.4835Z" fill="#4E8BFB"/>
<path d="M245.179 8.36791C245.179 8.32002 245.126 8.30681 245.06 8.33818L238.347 11.6011C238.293 11.6275 238.25 11.6853 238.25 11.7283L238.307 16.2759C238.307 16.3188 238.352 16.3353 238.407 16.3122L245.043 13.543C245.108 13.5166 245.161 13.4555 245.161 13.4076L245.177 8.36791H245.179Z" fill="#4E8BFB"/>
<path d="M217.604 28.2444L216.401 25.8534C216.39 25.8303 216.363 25.8286 216.34 25.8501L213.974 28.0083C213.954 28.0265 213.946 28.0578 213.957 28.0793L215.058 30.3647C215.068 30.3861 215.094 30.3911 215.114 30.3729L217.584 28.3204C217.607 28.3006 217.617 28.2659 217.606 28.2428L217.604 28.2444Z" fill="#4E8BFB"/>
<path d="M235.907 8.0823L238.091 11.1884C238.112 11.2181 238.17 11.2098 238.22 11.1685L244.361 6.06279C244.421 6.01325 244.449 5.9472 244.424 5.91417L241.883 2.63638C241.86 2.60666 241.794 2.62317 241.737 2.67436L235.953 7.95185C235.907 7.99479 235.883 8.05258 235.905 8.0823H235.907Z" fill="#4E8BFB"/>
<path d="M219.99 30.0443L217.834 28.5152C217.814 28.502 217.784 28.5119 217.766 28.5383L215.924 31.3984C215.91 31.4231 215.911 31.4545 215.929 31.4677L217.913 33.0232C217.933 33.0381 217.963 33.0315 217.979 33.0067L219.993 30.1203C220.011 30.0938 220.01 30.0592 219.988 30.0443H219.99Z" fill="#4E8BFB"/>
<path d="M231.846 6.78438L235.493 7.79827C235.529 7.80818 235.587 7.77515 235.624 7.72396L239.897 1.60102C239.939 1.54322 239.937 1.48873 239.897 1.48047L235.759 0.714281C235.723 0.707676 235.662 0.747307 235.627 0.80345L231.843 6.6787C231.812 6.72659 231.813 6.77448 231.846 6.78438Z" fill="#4E8BFB"/>
<path d="M223.357 30.5892L220.342 30.1814C220.316 30.1781 220.286 30.1995 220.276 30.2309L219.253 33.588C219.245 33.616 219.258 33.6441 219.285 33.6491L222.142 34.227C222.17 34.232 222.202 34.2121 222.212 34.1824L223.391 30.6553C223.403 30.6223 223.386 30.5925 223.357 30.5892Z" fill="#4E8BFB"/>
<path d="M231.405 6.68695L233.297 1.02306C233.316 0.970218 233.292 0.938843 233.248 0.953705L228.822 2.3705C228.782 2.38371 228.739 2.43325 228.724 2.48114L227.129 7.7223C227.116 7.76689 227.134 7.79661 227.171 7.7867L231.299 6.79098C231.34 6.78107 231.388 6.73318 231.405 6.6853V6.68695Z" fill="#4E8BFB"/>
<path d="M226.689 7.92049L226.52 3.63872C226.52 3.60074 226.486 3.59248 226.448 3.62055L222.642 6.38975C222.609 6.41452 222.583 6.46406 222.584 6.49873L222.778 10.4618C222.779 10.4965 222.808 10.508 222.842 10.4849L226.625 8.03442C226.663 8.00965 226.694 7.95846 226.692 7.92049H226.689Z" fill="url(#paint0_linear_4_8)"/>
<path d="M227.473 29.5786L223.813 30.5578C223.78 30.5661 223.756 30.5991 223.757 30.6305L223.929 34.1692C223.929 34.2005 223.959 34.2204 223.99 34.2138L227.627 33.4888C227.664 33.4822 227.693 33.4476 227.692 33.4145L227.543 29.6232C227.543 29.5885 227.51 29.5704 227.473 29.5803V29.5786Z" fill="url(#paint1_linear_4_8)"/>
<path d="M219.358 14.1524C219.371 14.1755 219.402 14.1706 219.429 14.1408L222.377 10.8845C222.407 10.8515 222.42 10.8052 222.405 10.7821L220.835 8.15164C220.822 8.12852 220.787 8.13843 220.759 8.17145L217.958 11.5302C217.933 11.5599 217.923 11.6028 217.935 11.6243L219.358 14.1524Z" fill="url(#paint2_linear_4_8)"/>
<path d="M231.977 26.8094C231.959 26.7797 231.912 26.7781 231.873 26.8028L227.994 29.3425C227.96 29.3656 227.945 29.4052 227.96 29.4333L229.755 32.6236C229.771 32.6517 229.814 32.6583 229.851 32.6385L233.948 30.2837C233.989 30.259 234.009 30.2144 233.991 30.1847L231.975 26.8111L231.977 26.8094Z" fill="url(#paint3_linear_4_8)"/>
<path d="M217.114 18.1749C217.134 18.1865 217.164 18.1683 217.182 18.137L219.098 14.6098C219.118 14.5752 219.114 14.5372 219.093 14.5273L216.745 13.4374C216.725 13.4275 216.694 13.449 216.677 13.482L214.942 16.9249C214.927 16.9563 214.928 16.9893 214.947 16.9992L217.112 18.1733L217.114 18.1749Z" fill="url(#paint4_linear_4_8)"/>
<path d="M240.098 24.2747L235.898 22.3262C235.864 22.3097 235.806 22.3295 235.773 22.3691L232.384 26.3553C232.354 26.3917 232.354 26.4346 232.387 26.4511L236.141 28.4855C236.176 28.5036 236.232 28.4904 236.267 28.4541L240.101 24.3837C240.139 24.3424 240.139 24.2945 240.101 24.2764L240.098 24.2747Z" fill="url(#paint5_linear_4_8)"/>
<path d="M213.55 22.1148L216.092 22.0834C216.115 22.0834 216.141 22.057 216.15 22.0256L216.995 18.6141C217.003 18.5811 216.99 18.5547 216.965 18.558L214.306 18.771C214.283 18.7726 214.26 18.8007 214.253 18.8321L213.524 22.062C213.517 22.0917 213.529 22.1165 213.55 22.1165V22.1148Z" fill="url(#paint6_linear_4_8)"/>
<path d="M244.35 16.3552L238.294 16.8423C238.244 16.8456 238.188 16.8885 238.168 16.9364L236.156 21.7548C236.138 21.7994 236.161 21.8341 236.208 21.8341L241.831 21.7648C241.886 21.7648 241.947 21.7251 241.97 21.6772L244.414 16.4427C244.439 16.3915 244.411 16.3519 244.353 16.3568L244.35 16.3552Z" fill="url(#paint7_linear_4_8)"/>
<path d="M216.305 25.4835L216.107 22.4666C216.105 22.4385 216.083 22.4237 216.059 22.4369L213.418 23.7199C213.396 23.7315 213.38 23.7612 213.381 23.7893L213.587 26.6229C213.588 26.6493 213.608 26.6642 213.63 26.6543L216.264 25.5545C216.289 25.5446 216.307 25.5132 216.305 25.4835Z" fill="url(#paint8_linear_4_8)"/>
<path d="M245.179 8.36791C245.179 8.32002 245.126 8.30681 245.06 8.33818L238.347 11.6011C238.293 11.6275 238.25 11.6853 238.25 11.7283L238.307 16.2759C238.307 16.3188 238.352 16.3353 238.407 16.3122L245.043 13.543C245.108 13.5166 245.161 13.4555 245.161 13.4076L245.177 8.36791H245.179Z" fill="url(#paint9_linear_4_8)"/>
<path d="M217.604 28.2444L216.401 25.8534C216.39 25.8303 216.363 25.8286 216.34 25.8501L213.974 28.0083C213.954 28.0265 213.946 28.0578 213.957 28.0793L215.058 30.3647C215.068 30.3861 215.094 30.3911 215.114 30.3729L217.584 28.3204C217.607 28.3006 217.617 28.2659 217.606 28.2428L217.604 28.2444Z" fill="url(#paint10_linear_4_8)"/>
<path d="M235.907 8.0823L238.091 11.1884C238.112 11.2181 238.17 11.2098 238.22 11.1685L244.361 6.06279C244.421 6.01325 244.449 5.9472 244.424 5.91417L241.883 2.63638C241.86 2.60666 241.794 2.62317 241.737 2.67436L235.953 7.95185C235.907 7.99479 235.883 8.05258 235.905 8.0823H235.907Z" fill="url(#paint11_linear_4_8)"/>
<path d="M219.99 30.0443L217.834 28.5152C217.814 28.502 217.784 28.5119 217.766 28.5383L215.924 31.3984C215.91 31.4231 215.911 31.4545 215.929 31.4677L217.913 33.0232C217.933 33.0381 217.963 33.0315 217.979 33.0067L219.993 30.1203C220.011 30.0938 220.01 30.0592 219.988 30.0443H219.99Z" fill="url(#paint12_linear_4_8)"/>
<path d="M231.846 6.78438L235.493 7.79827C235.529 7.80818 235.587 7.77515 235.624 7.72396L239.897 1.60102C239.939 1.54322 239.937 1.48873 239.897 1.48047L235.759 0.714281C235.723 0.707676 235.662 0.747307 235.627 0.80345L231.843 6.6787C231.812 6.72659 231.813 6.77448 231.846 6.78438Z" fill="url(#paint13_linear_4_8)"/>
<path d="M223.357 30.5892L220.342 30.1814C220.316 30.1781 220.286 30.1995 220.276 30.2309L219.253 33.588C219.245 33.616 219.258 33.6441 219.285 33.6491L222.142 34.227C222.17 34.232 222.202 34.2121 222.212 34.1824L223.391 30.6553C223.403 30.6223 223.386 30.5925 223.357 30.5892Z" fill="url(#paint14_linear_4_8)"/>
<path d="M231.405 6.68695L233.297 1.02306C233.316 0.970218 233.292 0.938843 233.248 0.953705L228.822 2.3705C228.782 2.38371 228.739 2.43325 228.724 2.48114L227.129 7.7223C227.116 7.76689 227.134 7.79661 227.171 7.7867L231.299 6.79098C231.34 6.78107 231.388 6.73318 231.405 6.6853V6.68695Z" fill="url(#paint15_linear_4_8)"/>
<path d="M215.109 42.7542H214.008L213.876 43.2413C213.846 43.3486 213.83 43.4312 213.83 43.484C213.83 43.5914 213.896 43.6161 214.068 43.6161V43.8506H213.186V43.6161C213.338 43.6161 213.414 43.5633 213.486 43.3387L214.495 40.1204H214.996L216.082 43.2694C216.183 43.5616 216.244 43.6145 216.411 43.6145V43.849H215.057V43.6145C215.244 43.6145 215.311 43.5748 215.311 43.4774C215.311 43.4328 215.296 43.3701 215.269 43.2974L215.107 42.7525L215.109 42.7542ZM214.97 42.4718L214.503 40.9972H214.483L214.058 42.4718H214.971H214.97Z" fill="#0032B4"/>
<path d="M218.193 40.1881L219.698 42.8847H219.708V40.8453C219.708 40.4804 219.652 40.4259 219.308 40.4259V40.1881H220.418V40.4259C220.099 40.4259 220.043 40.4787 220.043 40.8453V43.9018H219.505L217.811 40.9081H217.801V43.1967C217.801 43.5567 217.842 43.6162 218.186 43.6162V43.8507H217.076V43.6162C217.42 43.6162 217.461 43.5584 217.461 43.1967V40.8354C217.461 40.4655 217.42 40.4259 217.071 40.4259V40.1881H218.191H218.193Z" fill="#0032B4"/>
<path d="M222.056 40.1881L223.562 42.8847H223.572V40.8453C223.572 40.4804 223.515 40.4259 223.171 40.4259V40.1881H224.281V40.4259C223.962 40.4259 223.906 40.4787 223.906 40.8453V43.9018H223.368L221.674 40.9081H221.664V43.1967C221.664 43.5567 221.705 43.6162 222.049 43.6162V43.8507H220.939V43.6162C221.283 43.6162 221.325 43.5584 221.325 43.1967V40.8354C221.325 40.4655 221.283 40.4259 220.934 40.4259V40.1881H222.054H222.056Z" fill="#0032B4"/>
<path d="M224.804 43.6145C225.2 43.6145 225.236 43.5567 225.236 43.1951V40.8437C225.236 40.4787 225.201 40.4242 224.804 40.4242V40.1865H226.467V40.4242C226.072 40.4242 226.035 40.4771 226.035 40.8437V43.1951C226.035 43.5551 226.07 43.6145 226.467 43.6145V43.849H224.804V43.6145Z" fill="#0032B4"/>
<path d="M228.785 43.0167L229.455 40.8024C229.485 40.705 229.502 40.6373 229.502 40.5828C229.502 40.4507 229.416 40.4275 229.239 40.4275V40.1898H230.157V40.4275C229.975 40.4275 229.914 40.4754 229.842 40.705L228.833 43.9233H228.3L227.22 40.7743C227.114 40.4721 227.068 40.4292 226.854 40.4292V40.1914H228.269V40.4292C228.075 40.4292 228.006 40.4738 228.006 40.5795C228.006 40.6323 228.021 40.7066 228.052 40.7941L228.772 43.0184H228.787L228.785 43.0167Z" fill="#0032B4"/>
<path d="M233.185 43.849H230.572V43.6145C230.938 43.6145 230.983 43.5567 230.983 43.1951V40.8437C230.983 40.4787 230.936 40.4242 230.572 40.4242V40.1865H233.057L233.22 41.0385H232.9C232.773 40.5085 232.713 40.4688 232.429 40.4688H231.962C231.8 40.4688 231.785 40.5085 231.785 40.6934V41.813H232.212C232.435 41.813 232.487 41.7453 232.487 41.3159H232.791V42.6056H232.487C232.487 42.1333 232.44 42.0937 232.219 42.0937H231.787V43.3454C231.787 43.5452 231.828 43.565 231.929 43.565H232.553C232.842 43.565 232.904 43.5121 233.034 42.9606H233.354L233.186 43.8473L233.185 43.849Z" fill="#0032B4"/>
<path d="M235.496 40.1881C236.014 40.1881 236.343 40.2509 236.611 40.4358C236.84 40.591 236.987 40.8206 236.987 41.1657C236.987 41.5702 236.754 41.9781 236.176 42.1102L236.846 43.2694C237.028 43.5815 237.126 43.6145 237.303 43.6145V43.849H236.308L235.446 42.2126H235.193V43.1967C235.193 43.5716 235.218 43.6162 235.554 43.6162V43.8507H233.982V43.6162C234.358 43.6162 234.393 43.5584 234.393 43.1934V40.847C234.393 40.482 234.358 40.4275 233.982 40.4275V40.1898H235.499L235.496 40.1881ZM235.276 40.4705C235.154 40.4705 235.144 40.5233 235.144 40.7776V41.9319H235.377C235.949 41.9319 236.112 41.6198 236.112 41.1723C236.112 40.9477 236.05 40.7628 235.93 40.6373C235.824 40.5299 235.676 40.4721 235.458 40.4721H235.276V40.4705Z" fill="#0032B4"/>
<path d="M238.201 42.8549C238.358 43.4775 238.592 43.6393 238.962 43.6393C239.267 43.6393 239.535 43.4395 239.535 43.0746C239.535 42.7344 239.373 42.5775 238.84 42.2126C238.246 41.808 237.953 41.6033 237.953 41.0534C237.953 40.6637 238.238 40.1188 239.186 40.1188C239.52 40.1188 239.81 40.1766 240.018 40.2591C240.033 40.449 240.069 40.7364 240.124 41.0534L239.81 41.1013C239.704 40.5663 239.581 40.3995 239.181 40.3995C238.847 40.3995 238.668 40.5993 238.668 40.8569C238.668 41.1541 238.861 41.3143 239.316 41.6264C239.982 42.0788 240.286 42.2886 240.286 42.8582C240.286 43.4626 239.783 43.92 238.943 43.92C238.618 43.92 238.289 43.8573 238.029 43.7698C237.999 43.4428 237.943 43.1703 237.882 42.9276L238.201 42.8549Z" fill="#0032B4"/>
<path d="M242.735 42.7542H241.634L241.502 43.2413C241.472 43.3487 241.456 43.4312 241.456 43.4841C241.456 43.5914 241.522 43.6162 241.694 43.6162V43.8507H240.812V43.6162C240.964 43.6162 241.04 43.5633 241.112 43.3388L242.121 40.1204H242.622L243.708 43.2694C243.809 43.5617 243.87 43.6145 244.037 43.6145V43.849H242.683V43.6145C242.87 43.6145 242.937 43.5749 242.937 43.4775C242.937 43.4329 242.922 43.3701 242.895 43.2975L242.733 42.7526L242.735 42.7542ZM242.596 42.4718L242.129 40.9973H242.109L241.684 42.4718H242.597H242.596Z" fill="#0032B4"/>
<path d="M246.223 40.1881C246.74 40.1881 247.07 40.2509 247.338 40.4358C247.566 40.591 247.713 40.8206 247.713 41.1657C247.713 41.5702 247.48 41.9781 246.903 42.1102L247.573 43.2694C247.755 43.5815 247.852 43.6145 248.029 43.6145V43.849H247.035L246.173 42.2126H245.92V43.1967C245.92 43.5716 245.945 43.6162 246.28 43.6162V43.8507H244.709V43.6162C245.084 43.6162 245.119 43.5584 245.119 43.1934V40.847C245.119 40.482 245.084 40.4275 244.709 40.4275V40.1898H246.226L246.223 40.1881ZM246.002 40.4705C245.88 40.4705 245.87 40.5233 245.87 40.7776V41.9319H246.103C246.676 41.9319 246.84 41.6198 246.84 41.1723C246.84 40.9477 246.778 40.7628 246.658 40.6373C246.552 40.5299 246.405 40.4721 246.186 40.4721H246.004L246.002 40.4705Z" fill="#0032B4"/>
<path d="M249.49 42.2572L248.658 40.7677C248.501 40.4754 248.43 40.4275 248.243 40.4275V40.1898H249.719V40.4275C249.532 40.4275 249.451 40.4523 249.451 40.5349C249.451 40.5877 249.48 40.667 249.542 40.7727L250.126 41.8625H250.14L250.678 40.7677C250.734 40.6505 250.764 40.5729 250.764 40.525C250.764 40.4474 250.698 40.4275 250.546 40.4275V40.1898H251.464V40.4275C251.277 40.4275 251.216 40.4672 251.089 40.7297L250.288 42.2489V43.1984C250.288 43.5584 250.329 43.6178 250.739 43.6178V43.8523H249.035V43.6178C249.455 43.6178 249.492 43.56 249.492 43.1984V42.2588L249.49 42.2572Z" fill="#0032B4"/>
<path d="M240.27 31.3075V31.8508H238.666L238.651 36.1953C238.651 36.5768 238.686 36.8657 238.754 37.0622C238.88 37.409 239.126 37.5824 239.494 37.5824C239.682 37.5824 239.846 37.5395 239.985 37.4536C240.124 37.3677 240.283 37.2323 240.46 37.0457L240.663 37.2109L240.49 37.4371C240.217 37.7888 239.929 38.0382 239.624 38.1835C239.32 38.3288 239.027 38.4014 238.744 38.4014C238.125 38.4014 237.707 38.1372 237.487 37.6088C237.366 37.3215 237.306 36.9252 237.306 36.4166V31.8459H236.449C236.423 31.831 236.403 31.8161 236.39 31.8013C236.376 31.7864 236.37 31.7666 236.37 31.7402C236.37 31.6906 236.381 31.651 236.404 31.6229C236.428 31.5949 236.502 31.5305 236.628 31.4297C236.989 31.1424 237.25 30.9112 237.41 30.7312C237.571 30.5529 237.947 30.0806 238.539 29.3177C238.607 29.3177 238.648 29.3227 238.661 29.3326C238.675 29.3425 238.681 29.3805 238.681 29.4465V31.3026H240.27V31.3075Z" fill="#0032B4"/>
<path d="M240.837 38.0514C241.267 37.9969 241.548 37.8945 241.682 37.7459C241.816 37.5973 241.883 37.2472 241.883 36.694V29.4532C241.883 29.1708 241.845 28.9644 241.768 28.8306C241.692 28.6969 241.507 28.6308 241.214 28.6308C241.156 28.6308 241.1 28.6341 241.045 28.6424C240.991 28.6507 240.928 28.6589 240.86 28.6688V28.398C241.09 28.332 241.375 28.2543 241.712 28.1602C242.05 28.0678 242.285 28 242.415 27.9604L243.17 27.7342L243.185 27.787V32.4172C243.516 32.0556 243.809 31.7881 244.065 31.618C244.527 31.3158 245.023 31.1656 245.559 31.1656C246.408 31.1656 246.987 31.5074 247.296 32.191C247.463 32.5526 247.548 33.0282 247.548 33.6161V36.694C247.548 37.2274 247.612 37.5742 247.74 37.7343C247.869 37.8945 248.132 38.0002 248.529 38.0514V38.2628H245.126V38.0514C245.581 37.9903 245.875 37.8879 246.006 37.7426C246.137 37.5973 246.203 37.2472 246.203 36.694V33.6392C246.203 33.152 246.117 32.7574 245.948 32.4552C245.777 32.153 245.456 32.0027 244.985 32.0027C244.576 32.0027 244.181 32.1431 243.799 32.4255C243.416 32.7078 243.225 32.8911 243.225 32.9754V36.694C243.225 37.2571 243.292 37.6088 243.43 37.7492C243.565 37.8896 243.857 37.9903 244.302 38.0514V38.2628H240.835V38.0514H240.837Z" fill="#0032B4"/>
</g>
<path d="M87.034 18.9077H61.8279V22.0433H72.8368V43.1517H76.0251V22.0433H87.034V18.9077Z" fill="#231815"/>
<path d="M181.828 18.9077H177.707L169.932 28.499L162.156 18.9077H137.439V43.1222H137.499H162.156L169.932 33.5308L177.707 43.1222H181.828L171.992 31.0297L181.828 18.9077ZM160.6 39.9865H140.687V32.4462H159.938V29.3106H140.687V22.0433H160.577L167.856 31.0297L160.6 39.9865Z" fill="#231815"/>
<path d="M112.06 43.1517H115.241V23.2533L112.06 19.7488V43.1517Z" fill="#231815"/>
<path d="M102.871 18.7749C101.245 18.0947 99.4947 17.7458 97.7271 17.7493C95.1049 17.742 92.5395 18.4982 90.3557 19.9223C88.1718 21.3463 86.4677 23.374 85.4591 25.7488C84.4505 28.1236 84.1827 30.7386 84.6897 33.2628C85.1967 35.787 86.4557 38.1068 88.3072 39.9286C90.1587 41.7504 92.5195 42.9922 95.0907 43.4968C97.6619 44.0014 100.328 43.7461 102.751 42.7632C105.175 41.7804 107.246 40.1142 108.704 37.9755C110.161 35.8369 110.939 33.322 110.939 30.7493C110.939 25.6438 107.916 21.1948 102.871 18.7749ZM97.7271 40.3481C96.2719 40.3427 94.8363 40.0186 93.5251 39.3995C92.2138 38.7805 91.06 37.882 90.1477 36.7696C89.2355 35.6573 88.5878 34.3591 88.252 32.9699C87.9163 31.5807 87.9008 30.1354 88.2069 28.7396C88.5129 27.3438 89.1327 26.0326 90.021 24.9018C90.9093 23.7709 92.0437 22.8489 93.3415 22.203C94.6392 21.5571 96.0676 21.2036 97.5223 21.1683C98.977 21.133 100.421 21.4168 101.75 21.999C105.427 23.9394 107.488 27.1636 107.488 30.7493C107.49 33.2918 106.463 35.7311 104.632 37.531C102.802 39.3309 100.318 40.3442 97.7271 40.3481Z" fill="#231815"/>
<path d="M118.256 43.1H129.445L118.256 29.1778V43.1Z" fill="#004EA2"/>
<path d="M136.822 25.7913C136.822 22.6409 134.115 18.9077 130.182 18.9077H117.888L120.715 22.0433H129.694C130.14 22.063 130.577 22.1698 130.98 22.3575C131.384 22.5452 131.745 22.81 132.042 23.1364C132.34 23.4628 132.568 23.8442 132.714 24.2583C132.859 24.6724 132.919 25.1108 132.889 25.5478C132.919 25.9852 132.859 26.424 132.714 26.8385C132.568 27.253 132.34 27.6349 132.043 27.9619C131.745 28.2889 131.384 28.5544 130.981 28.7429C130.577 28.9314 130.14 29.0391 129.694 29.0598H125.362L122.685 25.6659H118.384L132.153 43.1H136.454L128.039 32.4462H130.551C134.115 32.4462 136.822 28.9343 136.822 25.7913Z" fill="#231815"/>
<path d="M57.9937 16.0343C53.4941 19.4612 46.5137 23.375 38.3563 26.8272C23.1236 33.2701 9.69445 35.6095 8.09333 32.17C7.32125 30.5071 8.11232 28.781 9.36536 26.4226C9.19449 27.5164 9.10589 28.6419 9.10589 29.7863C9.10589 29.9633 9.10589 30.1467 9.11222 30.3237C9.12488 30.6904 9.13754 31.133 9.39068 31.5061C10.0362 32.4671 12.8081 32.3091 13.5232 32.2522C13.4093 31.4428 13.346 30.6209 13.346 29.7863C13.346 19.9923 21.3199 12.0194 31.1291 12.0194C37.9006 12.0194 43.7925 15.8193 46.7985 21.396C48.1022 20.7258 49.3426 20.0492 50.526 19.379C46.8112 12.4746 39.5081 7.77679 31.1355 7.77679C20.5542 7.77679 11.7006 15.2629 9.59319 25.2086C2.68245 30.4628 -1.08934 35.3693 0.277617 38.1702C1.37878 40.4275 5.59357 40.908 11.574 39.8647C15.2446 46.9336 22.6299 51.7768 31.1355 51.7768C43.2799 51.7768 53.1587 41.907 53.1587 29.7736C53.1587 26.9158 52.6081 24.1843 51.6082 21.6805C54.2029 19.7205 56.3672 17.811 58 16.0343H57.9937ZM48.9123 29.78C48.9123 39.5739 40.9383 47.5406 31.1355 47.5406C24.6804 47.5406 19.0227 44.082 15.9027 38.9227C21.4655 37.4937 28.0218 35.0658 34.7997 31.7653C39.7106 29.3753 44.1912 26.7956 48.0199 24.2286C48.5958 25.9737 48.9186 27.8389 48.9186 29.7736L48.9123 29.78Z" fill="#004EA2"/>
<defs>
<linearGradient id="paint0_linear_4_8" x1="242.707" y1="0.484773" x2="216.51" y2="34.0809" gradientUnits="userSpaceOnUse">
<stop offset="0.04" stop-color="#00FF8C"/>
<stop offset="0.6" stop-color="#00FFFF" stop-opacity="0.6"/>
<stop offset="1" stop-color="#00FFFF" stop-opacity="0"/>
</linearGradient>
<linearGradient id="paint1_linear_4_8" x1="242.707" y1="0.484721" x2="216.51" y2="34.0808" gradientUnits="userSpaceOnUse">
<stop offset="0.04" stop-color="#00FF8C"/>
<stop offset="0.6" stop-color="#00FFFF" stop-opacity="0.6"/>
<stop offset="1" stop-color="#00FFFF" stop-opacity="0"/>
</linearGradient>
<linearGradient id="paint2_linear_4_8" x1="242.707" y1="0.484745" x2="216.51" y2="34.0808" gradientUnits="userSpaceOnUse">
<stop offset="0.04" stop-color="#00FF8C"/>
<stop offset="0.6" stop-color="#00FFFF" stop-opacity="0.6"/>
<stop offset="1" stop-color="#00FFFF" stop-opacity="0"/>
</linearGradient>
<linearGradient id="paint3_linear_4_8" x1="242.707" y1="0.484734" x2="216.51" y2="34.0808" gradientUnits="userSpaceOnUse">
<stop offset="0.04" stop-color="#00FF8C"/>
<stop offset="0.6" stop-color="#00FFFF" stop-opacity="0.6"/>
<stop offset="1" stop-color="#00FFFF" stop-opacity="0"/>
</linearGradient>
<linearGradient id="paint4_linear_4_8" x1="242.707" y1="0.484794" x2="216.51" y2="34.0809" gradientUnits="userSpaceOnUse">
<stop offset="0.04" stop-color="#00FF8C"/>
<stop offset="0.6" stop-color="#00FFFF" stop-opacity="0.6"/>
<stop offset="1" stop-color="#00FFFF" stop-opacity="0"/>
</linearGradient>
<linearGradient id="paint5_linear_4_8" x1="242.707" y1="0.484742" x2="216.51" y2="34.0808" gradientUnits="userSpaceOnUse">
<stop offset="0.04" stop-color="#00FF8C"/>
<stop offset="0.6" stop-color="#00FFFF" stop-opacity="0.6"/>
<stop offset="1" stop-color="#00FFFF" stop-opacity="0"/>
</linearGradient>
<linearGradient id="paint6_linear_4_8" x1="242.707" y1="0.484696" x2="216.51" y2="34.0808" gradientUnits="userSpaceOnUse">
<stop offset="0.04" stop-color="#00FF8C"/>
<stop offset="0.6" stop-color="#00FFFF" stop-opacity="0.6"/>
<stop offset="1" stop-color="#00FFFF" stop-opacity="0"/>
</linearGradient>
<linearGradient id="paint7_linear_4_8" x1="242.707" y1="0.484714" x2="216.51" y2="34.0808" gradientUnits="userSpaceOnUse">
<stop offset="0.04" stop-color="#00FF8C"/>
<stop offset="0.6" stop-color="#00FFFF" stop-opacity="0.6"/>
<stop offset="1" stop-color="#00FFFF" stop-opacity="0"/>
</linearGradient>
<linearGradient id="paint8_linear_4_8" x1="242.707" y1="0.484779" x2="216.51" y2="34.0809" gradientUnits="userSpaceOnUse">
<stop offset="0.04" stop-color="#00FF8C"/>
<stop offset="0.6" stop-color="#00FFFF" stop-opacity="0.6"/>
<stop offset="1" stop-color="#00FFFF" stop-opacity="0"/>
</linearGradient>
<linearGradient id="paint9_linear_4_8" x1="242.707" y1="0.484698" x2="216.51" y2="34.0808" gradientUnits="userSpaceOnUse">
<stop offset="0.04" stop-color="#00FF8C"/>
<stop offset="0.6" stop-color="#00FFFF" stop-opacity="0.6"/>
<stop offset="1" stop-color="#00FFFF" stop-opacity="0"/>
</linearGradient>
<linearGradient id="paint10_linear_4_8" x1="242.707" y1="0.484776" x2="216.51" y2="34.0809" gradientUnits="userSpaceOnUse">
<stop offset="0.04" stop-color="#00FF8C"/>
<stop offset="0.6" stop-color="#00FFFF" stop-opacity="0.6"/>
<stop offset="1" stop-color="#00FFFF" stop-opacity="0"/>
</linearGradient>
<linearGradient id="paint11_linear_4_8" x1="242.707" y1="0.484764" x2="216.51" y2="34.0809" gradientUnits="userSpaceOnUse">
<stop offset="0.04" stop-color="#00FF8C"/>
<stop offset="0.6" stop-color="#00FFFF" stop-opacity="0.6"/>
<stop offset="1" stop-color="#00FFFF" stop-opacity="0"/>
</linearGradient>
<linearGradient id="paint12_linear_4_8" x1="242.707" y1="0.484753" x2="216.51" y2="34.0808" gradientUnits="userSpaceOnUse">
<stop offset="0.04" stop-color="#00FF8C"/>
<stop offset="0.6" stop-color="#00FFFF" stop-opacity="0.6"/>
<stop offset="1" stop-color="#00FFFF" stop-opacity="0"/>
</linearGradient>
<linearGradient id="paint13_linear_4_8" x1="242.707" y1="0.484753" x2="216.51" y2="34.0808" gradientUnits="userSpaceOnUse">
<stop offset="0.04" stop-color="#00FF8C"/>
<stop offset="0.6" stop-color="#00FFFF" stop-opacity="0.6"/>
<stop offset="1" stop-color="#00FFFF" stop-opacity="0"/>
</linearGradient>
<linearGradient id="paint14_linear_4_8" x1="242.707" y1="0.484748" x2="216.51" y2="34.0808" gradientUnits="userSpaceOnUse">
<stop offset="0.04" stop-color="#00FF8C"/>
<stop offset="0.6" stop-color="#00FFFF" stop-opacity="0.6"/>
<stop offset="1" stop-color="#00FFFF" stop-opacity="0"/>
</linearGradient>
<linearGradient id="paint15_linear_4_8" x1="242.707" y1="0.484741" x2="216.51" y2="34.0808" gradientUnits="userSpaceOnUse">
<stop offset="0.04" stop-color="#00FF8C"/>
<stop offset="0.6" stop-color="#00FFFF" stop-opacity="0.6"/>
<stop offset="1" stop-color="#00FFFF" stop-opacity="0"/>
</linearGradient>
<clipPath id="clip0_4_8">
<rect width="56" height="44" fill="white" transform="translate(195.464 0.714294)"/>
</clipPath>
</defs>
</svg>