<svg height="976" viewBox="0 0 990 976" width="990" xmlns="http://www.w3.org/2000/svg"><path d="m0 0h990v976h-990z" fill="#fff"/><text transform="translate(249.265 215.989)"><tspan fill="#656565" font-family="Avenir-Medium" font-size="40" x="-37.044" y="6">TE</tspan> <tspan fill="#656565" font-family="Avenir-Medium" font-size="24" x="10.356" y="6">10</tspan></text><text transform="translate(249.265 518.938)"><tspan fill="#656565" font-family="Avenir-Medium" font-size="40" x="-37.044" y="6">TE</tspan> <tspan fill="#656565" font-family="Avenir-Medium" font-size="24" x="10.356" y="6">20</tspan></text><text transform="translate(259.265 838.938)"><tspan fill="#656565" font-family="Avenir-Medium" font-size="40" x="-37.044" y="6">TE</tspan> <tspan fill="#656565" font-family="Avenir-Medium" font-size="24" x="10.356" y="6">30</tspan></text><path d="m322.583 141.737h239.422v127.692h-239.422z" fill="#656565"/><path d="m322.583 141.737h239.422v127.692h-239.422z" fill="none" stroke="#000"/><path d="m327.371 147.324h229.846v116.519h-229.846z" fill="#fffcfc"/><path d="m327.371 147.324h229.846v116.519h-229.846z" fill="none" stroke="#000"/><path d="m562.005 141.737 132.304-122.105" fill="none" stroke="#000"/><path d="m327.371 263.843 141.908-116.519" fill="none" stroke="#000"/><path d="m557.217 148.9 124.642-114.105" fill="none" stroke="#000" stroke-dasharray="10 7"/><path d="m557.217 262.636 122.248-120.899" fill="none" stroke="#000" stroke-dasharray="10 7"/><path d="m327.371 150.49 152.366-115.695" fill="none" stroke="#000" stroke-dasharray="10 7"/><path d="m327.371 141.737 167.446-127.534" fill="none" stroke="#000"/><path d="m562.005 269.429 134.875-138.707" fill="none" stroke="#000"/><path d="m494.817 14.203c4.432 4.043 13.369 2.185 19.395 4.789 38.363 16.575 50.7-3.413 81.275 3.192 11.554 2.496 19.953 8.044 34.172 5.586 21.685-3.747 42.68-16.717 64.65-11.971" fill="none" stroke="#000" stroke-linecap="round" stroke-linejoin="round"/><path d="m694.486 14.203c-.666 9.831-12.836 28.888-10.375 37.869 3.1 11.317 14.771 18.909 11.173 32.043-2.117 7.725-11.246 12.844-8.779 21.847 1.994 7.279 12.23 17.99 10.375 24.76" fill="none" stroke="#000" stroke-linecap="round" stroke-linejoin="round"/><path d="m322.583 455.647h239.422v127.692h-239.422z" fill="#656565"/><path d="m322.583 455.647h239.422v127.692h-239.422z" fill="none" stroke="#000"/><path d="m327.371 461.233h229.846v116.519h-229.846z" fill="#fffcfc"/><path d="m327.371 461.233h229.846v116.519h-229.846z" fill="none" stroke="#000"/><path d="m562.005 455.647 132.304-122.106" fill="none" stroke="#000"/><path d="m327.371 577.752 141.908-116.519" fill="none" stroke="#000"/><path d="m557.217 462.81 124.642-114.105" fill="none" stroke="#000" stroke-dasharray="10 7"/><path d="m557.217 576.545 122.248-120.898" fill="none" stroke="#000" stroke-dasharray="10 7"/><path d="m327.371 464.399 152.366-115.694" fill="none" stroke="#000" stroke-dasharray="10 7"/><path d="m327.371 455.647 167.446-127.534" fill="none" stroke="#000"/><path d="m562.005 583.339 134.875-138.708" fill="none" stroke="#000"/><path d="m494.817 328.113c4.432 4.043 13.369 2.184 19.395 4.788 38.363 16.575 50.7-3.413 81.275 3.192 11.554 2.496 19.953 8.044 34.172 5.587 21.685-3.748 42.68-16.718 64.65-11.971" fill="none" stroke="#000" stroke-linecap="round" stroke-linejoin="round"/><path d="m694.486 328.113c-.666 9.831-12.836 28.888-10.375 37.868 3.1 11.318 14.771 18.909 11.173 32.043-2.117 7.725-11.246 12.844-8.779 21.847 1.994 7.28 12.23 17.99 10.375 24.76" fill="none" stroke="#000" stroke-linecap="round" stroke-linejoin="round"/><path d="m322.583 770.647h239.422v127.692h-239.422z" fill="#656565"/><path d="m322.583 770.647h239.422v127.692h-239.422z" fill="none" stroke="#000"/><path d="m327.371 776.233h229.846v116.519h-229.846z" fill="#fffcfc"/><g fill="none"><path d="m327.371 776.233h229.846v116.519h-229.846z" stroke="#000"/><path d="m562.005 770.647 132.304-122.106" stroke="#000"/><path d="m327.371 892.752 141.908-116.519" stroke="#000"/><path d="m557.217 777.81 124.642-114.105" stroke="#000" stroke-dasharray="10 7"/><path d="m557.217 891.545 122.248-120.898" stroke="#000" stroke-dasharray="10 7"/><path d="m327.371 779.399 152.366-115.694" stroke="#000" stroke-dasharray="10 7"/><path d="m327.371 770.647 167.446-127.534" stroke="#000"/><path d="m562.005 898.339 134.875-138.708" stroke="#000"/><path d="m494.817 643.113c4.432 4.043 13.369 2.184 19.395 4.788 38.363 16.575 50.7-3.413 81.275 3.192 11.554 2.496 19.953 8.044 34.172 5.587 21.685-3.748 42.68-16.718 64.65-11.971" stroke="#000" stroke-linecap="round" stroke-linejoin="round"/><path d="m694.486 643.113c-.666 9.831-12.836 28.888-10.375 37.868 3.1 11.318 14.771 18.909 11.173 32.043-2.117 7.725-11.246 12.844-8.779 21.847 1.994 7.28 12.23 17.99 10.375 24.76" stroke="#000" stroke-linecap="round" stroke-linejoin="round"/><path d="m328.964 892.5s15.002-68.989 38.578-68.503" stroke="#c81919" stroke-width="3"/><path d="m405.048 892.5s-15.002-68.989-38.578-68.503" stroke="#c81919" stroke-width="3"/><path d="m405.048 892.5s15.003 68.989 38.578 68.503" stroke="#c81919" stroke-width="3"/><path d="m481.132 892.5s-15.002 68.989-38.578 68.503" stroke="#c81919" stroke-width="3"/><path d="m481.132 894.069s15.003-68.989 38.578-68.503" stroke="#c81919" stroke-width="3"/><path d="m557.217 894.069s-15.003-68.989-38.578-68.503" stroke="#c81919" stroke-width="3"/><path d="m328.964 574.607s22.504-59.925 57.867-59.503" stroke="#c81919" stroke-width="3"/><path d="m443.09 574.607s-22.504-59.925-57.867-59.503" stroke="#c81919" stroke-width="3"/><path d="m443.09 574.607s22.504 59.925 57.867 59.503" stroke="#c81919" stroke-width="3"/><path d="m557.217 574.607s-22.504 59.925-57.867 59.503" stroke="#c81919" stroke-width="3"/><path d="m328.964 264.91s44.212-69.552 115.062-69.96" stroke="#c81919" stroke-width="2"/><path d="m557.596 262.026s-45.952-68.414-116.79-67.035" stroke="#c81919" stroke-width="2"/></g></svg>